<?xml version="1.0" encoding="UTF-8"?>
<!DOCTYPE svg PUBLIC "-//W3C//DTD SVG 1.1//EN" "http://www.w3.org/Graphics/SVG/1.1/DTD/svg11.dtd">
<svg xmlns="http://www.w3.org/2000/svg" xmlns:xlink="http://www.w3.org/1999/xlink" version="1.1" width="439px" height="496px" viewBox="-0.5 -0.5 439 496"><defs/><g><path d="M 173.12 -53 L 266.31 119.35 L 173.12 291.69 Z" fill="#ffe6cc" stroke="#d79b00" stroke-miterlimit="10" transform="rotate(-90,219.72,119.35)" pointer-events="none"/><rect x="310.17" y="199.97" width="27.61" height="265" fill="#ffe6cc" stroke="#d79b00" pointer-events="none"/><rect x="66.26" y="464.97" width="303.75" height="30" fill="#ffe6cc" stroke="#d79b00" pointer-events="none"/><rect x="218.13" y="199.97" width="92.04" height="265" fill="#ffe6cc" stroke="#d79b00" pointer-events="none"/><rect x="218.13" y="374.97" width="92.04" height="20" fill="#ffe6cc" stroke="#d79b00" pointer-events="none"/><rect x="282.56" y="394.97" width="18.41" height="70" fill="#ffe6cc" stroke="#d79b00" pointer-events="none"/><rect x="264.15" y="394.97" width="18.41" height="70" fill="#ffe6cc" stroke="#d79b00" pointer-events="none"/><rect x="245.74" y="394.97" width="18.41" height="70" fill="#ffe6cc" stroke="#d79b00" pointer-events="none"/><rect x="227.33" y="394.97" width="18.41" height="70" fill="#ffe6cc" stroke="#d79b00" pointer-events="none"/><ellipse cx="231.94" cy="384.97" rx="9.204412675275904" ry="10" fill="#f8cecc" stroke="#b85450" transform="translate(231.94,0)scale(-1,1)translate(-231.94,0)" pointer-events="none"/><path d="M 254.15 276.79 L 260.82 261.37 L 255.15 250.57 L 260.82 241.32 L 255.15 227.44 L 265.48 203.15 L 274.15 222.81 L 266.15 233.61 L 270.82 244.4 L 263.82 253.66 L 268.15 262.14 Z" fill="#a1a1a1" stroke="rgb(0, 0, 0)" stroke-miterlimit="6" transform="translate(0,239.97)scale(1,-1)translate(0,-239.97)rotate(-270,264.15,239.97)" pointer-events="none"/><rect x="254.95" y="289.97" width="18.41" height="20" fill="#a1a1a1" stroke="rgb(0, 0, 0)" pointer-events="none"/><rect x="227.33" y="289.97" width="18.41" height="20" fill="#a1a1a1" stroke="rgb(0, 0, 0)" pointer-events="none"/><rect x="282.56" y="289.97" width="18.41" height="20" fill="#a1a1a1" stroke="rgb(0, 0, 0)" pointer-events="none"/><rect x="254.95" y="317.97" width="18.41" height="20" fill="#a1a1a1" stroke="rgb(0, 0, 0)" pointer-events="none"/><rect x="227.33" y="317.97" width="18.41" height="20" fill="#a1a1a1" stroke="rgb(0, 0, 0)" pointer-events="none"/><rect x="282.56" y="317.97" width="18.41" height="20" fill="#a1a1a1" stroke="rgb(0, 0, 0)" pointer-events="none"/><rect x="254.95" y="344.97" width="18.41" height="20" fill="#a1a1a1" stroke="rgb(0, 0, 0)" pointer-events="none"/><rect x="227.33" y="344.97" width="18.41" height="20" fill="#a1a1a1" stroke="rgb(0, 0, 0)" pointer-events="none"/><rect x="282.56" y="344.97" width="18.41" height="20" fill="#a1a1a1" stroke="rgb(0, 0, 0)" pointer-events="none"/><ellipse cx="231.94" cy="384.97" rx="5.752757922047437" ry="6.25" fill="#ffe6cc" stroke="#d79b00" transform="translate(231.94,0)scale(-1,1)translate(-231.94,0)" pointer-events="none"/><rect x="98.47" y="199.97" width="27.61" height="265" fill="#ffe6cc" stroke="#d79b00" pointer-events="none"/><rect x="199.72" y="99.97" width="230.57" height="30" fill="#ffe6cc" stroke="#d79b00" transform="rotate(30,315.01,114.97)" pointer-events="none"/><rect x="66.26" y="169.97" width="303.75" height="30" fill="#ffe6cc" stroke="#d79b00" pointer-events="none"/><rect x="126.09" y="199.97" width="92.04" height="265" fill="#ffe6cc" stroke="#d79b00" pointer-events="none"/><rect x="126.09" y="374.97" width="92.04" height="20" fill="#ffe6cc" stroke="#d79b00" pointer-events="none"/><rect x="135.29" y="394.97" width="18.41" height="70" fill="#ffe6cc" stroke="#d79b00" pointer-events="none"/><rect x="153.7" y="394.97" width="18.41" height="70" fill="#ffe6cc" stroke="#d79b00" pointer-events="none"/><rect x="172.11" y="394.97" width="18.41" height="70" fill="#ffe6cc" stroke="#d79b00" pointer-events="none"/><rect x="190.52" y="394.97" width="18.41" height="70" fill="#ffe6cc" stroke="#d79b00" pointer-events="none"/><ellipse cx="204.32" cy="384.97" rx="9.204412675275904" ry="10" fill="#f8cecc" stroke="#b85450" pointer-events="none"/><rect x="162.9" y="289.97" width="18.41" height="20" fill="#a1a1a1" stroke="rgb(0, 0, 0)" pointer-events="none"/><rect x="190.52" y="289.97" width="18.41" height="20" fill="#a1a1a1" stroke="rgb(0, 0, 0)" pointer-events="none"/><rect x="135.29" y="289.97" width="18.41" height="20" fill="#a1a1a1" stroke="rgb(0, 0, 0)" pointer-events="none"/><rect x="162.9" y="317.97" width="18.41" height="20" fill="#a1a1a1" stroke="rgb(0, 0, 0)" pointer-events="none"/><rect x="190.52" y="317.97" width="18.41" height="20" fill="#a1a1a1" stroke="rgb(0, 0, 0)" pointer-events="none"/><rect x="135.29" y="317.97" width="18.41" height="20" fill="#a1a1a1" stroke="rgb(0, 0, 0)" pointer-events="none"/><rect x="162.9" y="344.97" width="18.41" height="20" fill="#a1a1a1" stroke="rgb(0, 0, 0)" pointer-events="none"/><rect x="190.52" y="344.97" width="18.41" height="20" fill="#a1a1a1" stroke="rgb(0, 0, 0)" pointer-events="none"/><rect x="135.29" y="344.97" width="18.41" height="20" fill="#a1a1a1" stroke="rgb(0, 0, 0)" pointer-events="none"/><rect x="126.09" y="259.97" width="184.09" height="20" fill="#ffe6cc" stroke="#d79b00" pointer-events="none"/><path d="M 162.11 276.79 L 168.77 261.37 L 163.11 250.57 L 168.77 241.32 L 163.11 227.44 L 173.44 203.15 L 182.11 222.81 L 174.11 233.61 L 178.77 244.4 L 171.77 253.66 L 176.11 262.14 Z" fill="#a1a1a1" stroke="rgb(0, 0, 0)" stroke-miterlimit="6" transform="rotate(270,172.11,239.97)" pointer-events="none"/><path d="M 107.68 269.97 L 123.02 249.03 L 109.98 234.37 L 123.02 221.8 L 109.98 202.95 L 133.76 169.97 L 153.7 196.67 L 135.29 211.33 L 146.03 225.99 L 129.92 238.56 L 139.89 250.07 Z" fill="rgb(255, 255, 255)" stroke="rgb(0, 0, 0)" stroke-miterlimit="6" transform="translate(130.69,0)scale(-1,1)translate(-130.69,0)rotate(-180,130.69,219.97)" pointer-events="none"/><path d="M 162.9 269.97 L 178.24 249.03 L 165.2 234.37 L 178.24 221.8 L 165.2 202.95 L 188.98 169.97 L 208.92 196.67 L 190.52 211.33 L 201.25 225.99 L 185.15 238.56 L 195.12 250.07 Z" fill="rgb(255, 255, 255)" stroke="rgb(0, 0, 0)" stroke-miterlimit="6" transform="translate(185.91,0)scale(-1,1)translate(-185.91,0)rotate(-180,185.91,219.97)" pointer-events="none"/><ellipse cx="204.32" cy="384.97" rx="5.752757922047437" ry="6.25" fill="#ffe6cc" stroke="#d79b00" transform="translate(204.32,0)scale(-1,1)translate(-204.32,0)" pointer-events="none"/><rect x="5.97" y="99.97" width="230.57" height="30" fill="#ffe6cc" stroke="#d79b00" transform="rotate(-30,121.25,114.97)" pointer-events="none"/><rect x="-13" y="89.72" width="250.56" height="15" fill="#f8cecc" stroke="#b85450" transform="rotate(-30,112.28,97.22)" pointer-events="none"/><ellipse cx="219.71" cy="14.97" rx="13.806619012913853" ry="15" fill="#f8cecc" stroke="#b85450" pointer-events="none"/><rect x="199.72" y="89.72" width="250.56" height="15" fill="#f8cecc" stroke="#b85450" transform="rotate(30,325,97.22)" pointer-events="none"/><rect x="210.05" y="39.97" width="19.33" height="30.77" fill="#ffe6cc" stroke="#d79b00" pointer-events="none"/><rect x="210.05" y="19.97" width="19.33" height="30" fill="#f8cecc" stroke="#b85450" pointer-events="none"/><rect x="210.05" y="69.2" width="19.33" height="100.77" fill="#ffe6cc" stroke="#d79b00" pointer-events="none"/><path d="M 282.56 269.97 L 297.9 249.03 L 284.86 234.37 L 297.9 221.8 L 284.86 202.95 L 308.64 169.97 L 328.58 196.67 L 310.17 211.33 L 320.91 225.99 L 304.8 238.56 L 314.78 250.07 Z" fill="rgb(255, 255, 255)" stroke="rgb(0, 0, 0)" stroke-miterlimit="6" transform="rotate(180,305.57,219.97)" pointer-events="none"/><path d="M 233.78 270.97 L 249.12 250.03 L 236.08 235.37 L 249.12 222.8 L 236.08 203.95 L 259.86 170.97 L 279.8 197.67 L 261.39 212.33 L 272.13 226.99 L 256.02 239.56 L 265.99 251.07 Z" fill="rgb(255, 255, 255)" stroke="rgb(0, 0, 0)" stroke-miterlimit="6" transform="rotate(180,256.79,220.97)" pointer-events="none"/><ellipse cx="203.4" cy="57.97" rx="3.6817650701103606" ry="4" fill="#919191" stroke="rgb(0, 0, 0)" pointer-events="none"/><ellipse cx="203.4" cy="69.97" rx="3.6817650701103606" ry="4" fill="#919191" stroke="rgb(0, 0, 0)" pointer-events="none"/><ellipse cx="235.62" cy="57.97" rx="3.6817650701103606" ry="4" fill="#919191" stroke="rgb(0, 0, 0)" pointer-events="none"/><ellipse cx="235.62" cy="69.97" rx="3.6817650701103606" ry="4" fill="#919191" stroke="rgb(0, 0, 0)" pointer-events="none"/><ellipse cx="317.77" cy="109.97" rx="3.6817650701103606" ry="4" fill="#919191" stroke="rgb(0, 0, 0)" transform="rotate(30,317.77,109.97)" pointer-events="none"/><ellipse cx="312.24" cy="119.97" rx="3.6817650701103606" ry="4" fill="#919191" stroke="rgb(0, 0, 0)" transform="rotate(30,312.24,119.97)" pointer-events="none"/><ellipse cx="127.01" cy="104.97" rx="3.6817650701103606" ry="4" fill="#919191" stroke="rgb(0, 0, 0)" transform="rotate(30,127.01,104.97)" pointer-events="none"/><ellipse cx="132.53" cy="114.97" rx="3.6817650701103606" ry="4" fill="#919191" stroke="rgb(0, 0, 0)" transform="rotate(30,132.53,114.97)" pointer-events="none"/></g></svg>