<?xml version="1.0" encoding="UTF-8"?>
<!DOCTYPE svg PUBLIC "-//W3C//DTD SVG 1.1//EN" "http://www.w3.org/Graphics/SVG/1.1/DTD/svg11.dtd">
<svg xmlns="http://www.w3.org/2000/svg" xmlns:xlink="http://www.w3.org/1999/xlink" version="1.1" width="297px" height="293px" viewBox="-0.5 -0.5 297 293"><defs/><g><ellipse cx="149" cy="145" rx="145" ry="145" fill="#cfcfcf" stroke="none" pointer-events="all"/><ellipse cx="220.97" cy="50" rx="28" ry="20" fill="#9c9c9c" stroke="none" transform="rotate(15,220.97,50)" pointer-events="all"/><ellipse cx="39" cy="226.81" rx="5" ry="8.03" fill="#f7f7f7" stroke="none" transform="rotate(-30,39,226.81)" pointer-events="all"/><ellipse cx="150" cy="105" rx="20" ry="20" fill="#9c9c9c" stroke="none" pointer-events="all"/><ellipse cx="138" cy="80" rx="20" ry="20" fill="#9c9c9c" stroke="none" pointer-events="all"/><ellipse cx="228.97" cy="112.5" rx="20" ry="27.69" fill="#9c9c9c" stroke="none" transform="rotate(-15,228.97,112.5)" pointer-events="all"/><ellipse cx="44.17" cy="105" rx="30" ry="45" fill="#9c9c9c" stroke="none" transform="rotate(20,44.17,105)" pointer-events="all"/><ellipse cx="95.42" cy="202.31" rx="30" ry="35" fill="#9c9c9c" stroke="none" transform="rotate(20,95.42,202.31)" pointer-events="all"/><ellipse cx="195.85" cy="145" rx="10.615" ry="10.385" fill="#9c9c9c" stroke="none" pointer-events="all"/><ellipse cx="107" cy="122.31" rx="63" ry="32.31" fill="#9c9c9c" stroke="none" transform="rotate(20,107,122.31)" pointer-events="all"/><ellipse cx="187" cy="112.5" rx="17" ry="12.5" fill="#9c9c9c" stroke="none" pointer-events="all"/><ellipse cx="19.09" cy="190" rx="4.915" ry="10" fill="#9c9c9c" stroke="none" transform="rotate(-20,19.09,190)" pointer-events="all"/><path d="M 195.25 236.74 L 178.79 168.61 L 203.73 236.74 Z" fill="#f7f7f7" stroke="none" transform="rotate(90,191.26,202.68)" pointer-events="all"/><path d="M 163.98 250.87 L 152.29 202.74 L 170 250.87 Z" fill="#f7f7f7" stroke="none" transform="rotate(-177,161.14,226.81)" pointer-events="all"/><path d="M 146.27 218.78 L 134.58 170.65 L 152.29 218.78 Z" fill="#f7f7f7" stroke="none" transform="rotate(-30,143.43,194.72)" pointer-events="all"/><ellipse cx="157.14" cy="208.78" rx="9.145" ry="10" fill="#f7f7f7" stroke="none" transform="rotate(-30,157.14,208.78)" pointer-events="all"/><ellipse cx="171.29" cy="183.63" rx="5" ry="3.63" fill="#ffffff" stroke="none" pointer-events="all"/><path d="M 74.35 -15 C 68.23 -3.75 65.42 26.36 68.08 52.25 C 70.75 78.13 77.87 90 84 78.74 C 79.2 75.24 75.13 61.76 73.19 42.87 C 71.25 23.98 71.68 2.23 74.35 -15 Z" fill="#f7f7f7" stroke="none" transform="translate(0,37.5)scale(1,-1)translate(0,-37.5)rotate(-56,74.71,37.5)" pointer-events="all"/><path d="M 198.27 153.33 C 194.64 158.2 192.97 171.23 194.55 182.44 C 196.13 193.64 200.36 198.78 204 193.91 C 201.15 192.39 198.74 186.56 197.58 178.38 C 196.43 170.2 196.69 160.79 198.27 153.33 Z" fill="#f7f7f7" stroke="none" transform="translate(198.49,0)scale(-1,1)translate(-198.49,0)rotate(-45,198.49,176.06)" pointer-events="all"/><path d="M 191.16 202.74 C 189.44 209.62 188.65 228.04 189.4 243.88 C 190.14 259.71 192.14 266.97 193.86 260.08 C 192.51 257.94 191.37 249.69 190.83 238.14 C 190.28 226.59 190.41 213.28 191.16 202.74 Z" fill="#f7f7f7" stroke="none" transform="translate(191.26,0)scale(-1,1)translate(-191.26,0)rotate(-115,191.26,234.86)" pointer-events="all"/><path d="M 82.08 215.78 C 77.34 225.43 75.17 251.23 77.23 273.42 C 79.29 295.61 84.8 305.78 89.54 296.13 C 85.82 293.13 82.68 281.57 81.18 265.38 C 79.68 249.19 80.01 230.55 82.08 215.78 Z" fill="#f7f7f7" stroke="none" transform="rotate(303,82.36,260.78)" pointer-events="all"/><path d="M 84.99 -15 C 78.26 -1.77 75.17 33.62 78.1 64.04 C 81.03 94.46 88.86 108.4 95.6 95.18 C 90.32 91.06 85.85 75.22 83.71 53.02 C 81.58 30.82 82.06 5.25 84.99 -15 Z" fill="#9c9c9c" stroke="none" transform="rotate(65,85.38,46.71)" pointer-events="all"/><path d="M 106.83 70 C 94.97 76.39 89.54 93.49 94.7 108.19 C 99.85 122.89 113.64 129.63 125.49 123.24 C 116.2 121.25 108.33 113.59 104.57 102.86 C 100.81 92.14 101.66 79.78 106.83 70 Z" fill="#cfcfcf" stroke="none" transform="translate(107.51,0)scale(-1,1)translate(-107.51,0)rotate(-15,107.51,99.82)" pointer-events="all"/><ellipse cx="53.12" cy="132.3" rx="12.305" ry="12.305" fill="#cfcfcf" stroke="none" pointer-events="all"/><path d="M 272.87 60 C 268.21 73.29 266.07 108.85 268.1 139.42 C 270.12 170 275.55 184 280.21 170.71 C 276.55 166.58 273.46 150.66 271.98 128.35 C 270.5 106.04 270.84 80.35 272.87 60 Z" fill="#9c9c9c" stroke="none" transform="translate(0,122)scale(1,-1)translate(0,-122)rotate(-165,273.14,122)" pointer-events="all"/><ellipse cx="273.13" cy="114.62" rx="3.965" ry="5.53" fill="#f7f7f7" stroke="none" transform="rotate(-30,273.13,114.62)" pointer-events="all"/><ellipse cx="49" cy="133.03" rx="5" ry="8.03" fill="#f7f7f7" stroke="none" transform="rotate(20,49,133.03)" pointer-events="all"/><ellipse cx="273.13" cy="183.63" rx="3.965" ry="5.745" fill="#f7f7f7" stroke="none" transform="rotate(15,273.13,183.63)" pointer-events="all"/><ellipse cx="265.21" cy="185.74" rx="3.965" ry="5.745" fill="#f7f7f7" stroke="none" transform="rotate(30,265.21,185.74)" pointer-events="all"/><path d="M 228.57 191.86 C 221.64 196.73 218.46 209.76 221.48 220.97 C 224.49 232.17 232.56 237.31 239.49 232.44 C 234.05 230.92 229.45 225.09 227.25 216.91 C 225.05 208.73 225.55 199.32 228.57 191.86 Z" fill="#f7f7f7" stroke="none" transform="translate(228.98,0)scale(-1,1)translate(-228.98,0)rotate(-60,228.98,214.59)" pointer-events="all"/><ellipse cx="51.43" cy="208.39" rx="10.615" ry="10.385" fill="#9c9c9c" stroke="none" pointer-events="all"/></g></svg>