<?xml version="1.0" encoding="UTF-8"?>
<!DOCTYPE svg PUBLIC "-//W3C//DTD SVG 1.1//EN" "http://www.w3.org/Graphics/SVG/1.1/DTD/svg11.dtd">
<svg xmlns="http://www.w3.org/2000/svg" xmlns:xlink="http://www.w3.org/1999/xlink" version="1.1" width="468px" height="458px" viewBox="-0.5 -0.5 468 458"><defs/><g><rect x="-0.25" y="0" width="466.5" height="457" fill="none" stroke="none" pointer-events="all"/><rect x="65.5" y="125.88" width="37" height="60" fill="#ff4d17" stroke="#d6b656" transform="rotate(90,84,155.88)" pointer-events="all"/><rect x="361" y="125.88" width="37" height="60" fill="#ff4d17" stroke="#d6b656" transform="rotate(90,379.5,155.88)" pointer-events="all"/><rect x="191.5" y="90.88" width="83" height="40" fill="#ff4d17" stroke="#d6b656" transform="rotate(90,233,110.88)" pointer-events="all"/><rect x="212.5" y="40.87" width="37" height="230" fill="#ff4d17" stroke="#d6b656" transform="rotate(90,231,155.87)" pointer-events="all"/><rect x="84.71" y="60.86" width="45" height="360" fill="#ff4d17" stroke="#d6b656" transform="rotate(3,107.21,240.86)" pointer-events="all"/><rect x="336.02" y="50.87" width="45" height="370" fill="#ff4d17" stroke="#d6b656" transform="rotate(357,358.52,235.87)" pointer-events="all"/><path d="M 231.5 -149.13 L 258.75 -149.13 Q 210.25 55.87 258.75 260.87 L 231.5 260.87 Q 183 55.87 231.5 -149.13 Z" fill="#ff4d17" stroke="#d6b656" stroke-miterlimit="10" transform="rotate(-90,233,55.87)" pointer-events="all"/></g></svg>